<?xml version="1.0" encoding="UTF-8" standalone="no"?>
<svg width="24px" height="24px" viewBox="0 0 24 24" version="1.1" xmlns="http://www.w3.org/2000/svg" xmlns:xlink="http://www.w3.org/1999/xlink">
    <!-- Generator: Sketch 39.1 (31720) - http://www.bohemiancoding.com/sketch -->
    <title>info</title>
    <desc>Created with Sketch.</desc>
    <defs>
        <circle id="path-1" cx="12" cy="12" r="12"></circle>
        <mask id="mask-2" maskContentUnits="userSpaceOnUse" maskUnits="objectBoundingBox" x="0" y="0" width="24" height="24" fill="white">
            <use xlink:href="#path-1"></use>
        </mask>
    </defs>
    <g id="Page-1" stroke="none" stroke-width="1" fill="none" fill-rule="evenodd">
        <g id="2.-My-Alerts" transform="translate(-20.000000, -20.000000)">
            <g id="info" transform="translate(20.000000, 20.000000)">
                <use id="Oval" stroke="#FFFFFF" mask="url(#mask-2)" stroke-width="2" xlink:href="#path-1"></use>
                <path d="M12.7506853,8.86680421 C13.6829,8.86680421 14.398,8.12528283 14.398,7.32230304 C14.398,6.67957459 13.9867457,6.11725899 13.1630883,6.11725899 C12.0780892,6.11725899 11.5364512,7.00007725 11.5364512,7.6428057 C11.5146248,8.40557906 11.9701062,8.86680421 12.7506853,8.86680421 Z M13.9494112,15.9557717 C13.8977172,15.9557717 13.8494695,15.9672592 13.8052424,15.9873624 C13.7765235,16.0063169 13.7478046,16.0241226 13.7190858,16.0425027 C13.7190858,16.0436514 13.7185114,16.0436514 13.717937,16.0436514 C13.2400549,16.3474971 12.8161643,16.4945378 12.6639542,16.4945378 C12.5123186,16.4945378 12.4474139,16.2946544 12.5990496,15.71281 L13.4542977,12.420478 C13.7793954,11.2165827 13.6708381,10.4337061 13.0206427,10.4337061 C12.2900345,10.4337061 10.646166,11.125831 9.14014812,12.3182388 C9.1355531,12.321685 9.13095808,12.3251313 9.12693743,12.3285776 C9.04939647,12.3917591 9,12.4871058 9,12.5945144 C9,12.7863565 9.15565631,12.9420128 9.34692403,12.9420128 C9.38770483,12.9420128 9.42791126,12.9339715 9.46467142,12.9207608 C9.49511343,12.9041039 9.52498106,12.8880213 9.55599745,12.8713643 C10.0206689,12.6220845 10.5508193,12.4193292 10.7007319,12.4193292 C10.8523675,12.4193292 10.8311156,12.6203614 10.7007319,13.1217929 L9.9534667,16.2538736 C9.49798532,18.0195101 9.97529304,18.421 10.6260628,18.421 C11.2297336,18.421 12.7202432,17.9017627 14.1613565,16.5766738 C14.1762903,16.5623143 14.1912241,16.5485293 14.2061579,16.5353186 C14.2624469,16.4738602 14.2963352,16.3917242 14.2963352,16.3021213 C14.2963352,16.1102792 14.1412532,15.9557717 13.9494112,15.9557717 Z" id="Combined-Shape" fill="#FFFFFF"></path>
            </g>
        </g>
    </g>
</svg>