<?xml version="1.0" encoding="UTF-8" standalone="no"?>
<svg width="30px" height="35px" viewBox="0 0 30 35" version="1.1" xmlns="http://www.w3.org/2000/svg" xmlns:xlink="http://www.w3.org/1999/xlink">
    <!-- Generator: Sketch 39.1 (31720) - http://www.bohemiancoding.com/sketch -->
    <title>Group</title>
    <desc>Created with Sketch.</desc>
    <defs></defs>
    <g id="Page-1" stroke="none" stroke-width="1" fill="none" fill-rule="evenodd">
        <g id="1.-New" transform="translate(-248.000000, -298.000000)" fill="#FFFFFF">
            <g id="New-Alert" transform="translate(224.000000, 277.000000)">
                <g id="Group" transform="translate(24.000000, 21.000000)">
                    <path d="M25.5836842,28.3038636 C27.6189474,25.8618182 28.8426316,22.7134091 28.8426316,19.2770455 C28.8426316,15.8772727 27.6426316,12.7575 25.6484211,10.325 C24.0378947,8.365 21.9142105,6.85045455 19.4810526,5.99613636 C18.0410526,5.49340909 16.4952632,5.21659091 14.8863158,5.21659091 C13.2789474,5.21659091 11.7347368,5.49340909 10.2947368,5.99931818 C7.86157895,6.85204545 5.73631579,8.365 4.12578947,10.325 C2.13157895,12.7590909 0.931578947,15.8772727 0.931578947,19.2770455 C0.931578947,22.7134091 2.15526316,25.8618182 4.19052632,28.3038636 C4.25526316,28.3690909 4.31368421,28.4375 4.35947368,28.5090909 C4.59631579,28.8638636 4.63736842,29.3236364 4.43684211,29.7181818 C4.42105263,29.7515909 4.40368421,29.7865909 4.38157895,29.82 C4.35947368,29.8518182 4.33578947,29.8852273 4.31052632,29.9170455 L3.46894737,31.2565909 L2.70473684,32.3845455 C2.35263158,32.9445455 2.51684211,33.6795455 3.07105263,34.0343182 C3.62368421,34.3890909 4.35315789,34.2236364 4.70526316,33.6652273 L5.30684211,32.795 L5.98263158,31.7227273 C5.99210526,31.7036364 6.00157895,31.6861364 6.01421053,31.6702273 C6.03,31.6447727 6.04263158,31.6240909 6.05684211,31.6018182 L6.06,31.6018182 C6.40894737,31.1229545 7.05631579,30.9734091 7.57421053,31.2565909 C7.58052632,31.2597727 7.59,31.2661364 7.59631579,31.2693182 C7.61526316,31.2788636 7.63263158,31.2915909 7.64842105,31.3011364 C7.65789474,31.3075 7.66736842,31.3138636 7.67684211,31.3202273 C9.78,32.6040909 12.2494737,33.3406818 14.8863158,33.3406818 C17.5294737,33.3406818 19.9957895,32.6040909 22.0989474,31.3202273 L22.1273684,31.3011364 C22.1431579,31.2915909 22.1605263,31.2788636 22.1794737,31.2693182 C22.1857895,31.2661364 22.1952632,31.2597727 22.2015789,31.2565909 C22.7194737,30.9734091 23.3668421,31.1229545 23.7157895,31.6018182 L23.7189474,31.6018182 C23.7347368,31.6240909 23.7473684,31.6447727 23.7615789,31.6702273 C23.7742105,31.6861364 23.7836842,31.7036364 23.7931579,31.7227273 L24.4689474,32.795 L25.0278947,33.6652273 C25.3768421,34.2252273 26.1078947,34.3890909 26.6621053,34.0343182 C27.2147368,33.6795455 27.3773684,32.9429545 27.0252632,32.3845455 L26.3068421,31.2565909 L25.4652632,29.9170455 C25.44,29.8852273 25.4163158,29.8518182 25.3942105,29.82 C25.3721053,29.7865909 25.3547368,29.7515909 25.3389474,29.7181818 C25.1384211,29.3236364 25.1778947,28.8638636 25.4163158,28.5090909 C25.4605263,28.4375 25.5189474,28.3690909 25.5836842,28.3038636 L25.5836842,28.3038636 Z M14.8863158,29.6927273 C9.18157895,29.6927273 4.55210526,25.0281818 4.55210526,19.2770455 C4.55210526,13.5259091 9.18,8.86136364 14.8863158,8.86136364 C20.5973684,8.86136364 25.2236842,13.5259091 25.2236842,19.2770455 C25.2236842,25.0281818 20.5973684,29.6927273 14.8863158,29.6927273 L14.8863158,29.6927273 Z" id="Shape"></path>
                    <path d="M22.1510526,18.0902273 L16.6436842,18.0838636 C16.3294737,18.0520455 16.08,17.8006818 16.0610526,17.4809091 L16.0610526,17.4713636 L16.0610526,17.4379545 L16.0610526,17.4045455 L16.0610526,17.4013636 L16.0610526,14.3213636 L16.0610526,13.6531818 C16.0610526,12.9977273 15.5336842,12.4663636 14.8831579,12.4663636 C14.2452632,12.4663636 13.7273684,12.9754545 13.7052632,13.6134091 L13.7052632,13.6913636 L13.7052632,19.7511364 L13.7052632,19.8036364 L13.7052632,19.8195455 C13.7242105,20.1488636 13.98,20.4129545 14.3036842,20.4384091 L22.1984211,20.4384091 C22.7873684,20.3763636 23.2436842,19.8815909 23.2436842,19.2738636 C23.2436842,18.6438636 22.7621053,18.13 22.1510526,18.0902273 L22.1510526,18.0902273 Z" id="Shape"></path>
                    <path d="M24.6,0 C22.9310526,0 21.4452632,0.795454545 20.5010526,2.03159091 L20.5010526,2.03159091 C20.3526316,2.23363636 20.2673684,2.47863636 20.2673684,2.74590909 C20.2673684,3.23431818 20.5547368,3.64954545 20.97,3.83727273 C21.0015789,3.85 21.0284211,3.86272727 21.06,3.87386364 C23.3668421,4.8125 25.4115789,6.26022727 27.0615789,8.07863636 C27.0947368,8.11522727 27.1294737,8.15659091 27.1657895,8.19636364 C27.3789474,8.40477273 27.6678947,8.53522727 27.9915789,8.53522727 C28.3894737,8.53522727 28.7447368,8.33636364 28.9594737,8.02931818 C28.9594737,8.02931818 28.9594737,8.02931818 28.9594737,8.02613636 C28.9815789,7.99272727 29.0021053,7.95772727 29.0242105,7.92431818 C29.0273684,7.91795455 29.0305263,7.91477273 29.0336842,7.90840909 C29.5026316,7.1225 29.7742105,6.20295455 29.7742105,5.21818182 C29.7742105,2.33704545 27.4594737,0 24.6,0 L24.6,0 Z" id="Shape"></path>
                    <path d="M14.8863158,3.86590909 C15.5273684,3.86590909 16.0515789,3.35363636 16.0768421,2.7125 L16.0768421,2.66636364 C16.0768421,2.00454545 15.5431579,1.46681818 14.8863158,1.46681818 C14.2326316,1.46681818 13.6989474,2.00454545 13.6989474,2.66636364 L13.6989474,2.7125 C13.7226316,3.35204545 14.2468421,3.86590909 14.8863158,3.86590909 L14.8863158,3.86590909 Z" id="Shape"></path>
                    <path d="M2.61157895,8.19318182 C2.64473684,8.15659091 2.67631579,8.12159091 2.70789474,8.08818182 C4.35789474,6.265 6.40894737,4.8125 8.71578947,3.87545455 C8.74736842,3.86272727 8.77421053,3.85 8.80578947,3.83886364 C9.22105263,3.65113636 9.50684211,3.23431818 9.50684211,2.7475 C9.50684211,2.45795455 9.40578947,2.19386364 9.23526316,1.98863636 L9.23842105,1.98545455 C8.29263158,0.776363636 6.82105263,0 5.17421053,0 C2.31631579,0 0,2.33704545 0,5.21659091 C0,6.20136364 0.271578947,7.12090909 0.740526316,7.90681818 C0.743684211,7.91318182 0.746842105,7.91636364 0.75,7.92272727 C0.772105263,7.95613636 0.792631579,7.99113636 0.814736842,8.02454545 L0.814736842,8.02772727 C1.02947368,8.33636364 1.38157895,8.53522727 1.78263158,8.53522727 C2.10631579,8.53522727 2.4,8.40477273 2.61157895,8.19318182 L2.61157895,8.19318182 Z" id="Shape"></path>
                </g>
            </g>
        </g>
    </g>
</svg>