<?xml version="1.0" encoding="UTF-8" standalone="no"?>
<svg width="26px" height="39px" viewBox="0 0 26 39" version="1.1" xmlns="http://www.w3.org/2000/svg" xmlns:xlink="http://www.w3.org/1999/xlink">
    <!-- Generator: Sketch 39.1 (31720) - http://www.bohemiancoding.com/sketch -->
    <title>Shape</title>
    <desc>Created with Sketch.</desc>
    <defs></defs>
    <g id="Page-1" stroke="none" stroke-width="1" fill="none" fill-rule="evenodd">
        <g id="1.-New" transform="translate(-100.000000, -295.000000)" fill="#FFFFFF">
            <g id="New-Report" transform="translate(75.000000, 276.000000)">
                <path d="M41.0887594,19.8001439 C41.0248005,19.8001439 40.9608416,19.8025127 40.8980671,19.8072504 C40.4799655,19.8410065 40.2028102,19.9807685 39.8741326,20.2016636 C39.6917313,20.3230671 39.5247275,20.4711201 39.3784512,20.6434538 C39.3352197,20.694384 39.2943571,20.7476831 39.2564555,20.8021666 L25.9832063,38.3689526 C25.4590987,39.0873058 25.3821112,40.0354372 25.7848153,40.8278169 C26.1869272,41.6201966 27.0000344,42.1223924 27.8913134,42.1289067 L34.7289931,42.1786525 L32.5792634,54.8442904 C32.3749503,55.9327762 32.9553181,57.0177086 33.9768837,57.454761 C34.2812807,57.5856399 34.6010752,57.6478221 34.9167242,57.6478221 C35.6611347,57.6478221 36.2728897,57.2996015 36.7318541,56.6706724 L50.0216853,37.6346098 C50.5457929,36.9162566 50.6221884,35.9669408 50.2200764,35.1757456 C49.8179644,34.3833658 49.0048573,33.88117 48.1135783,33.8746558 L41.2758986,33.8628115 L43.402532,22.7262643 C43.4469479,22.546824 43.4700442,22.3608694 43.4700442,22.1689928 C43.4700442,20.8874459 42.4496628,19.8427839 41.1728537,19.8013292 C41.1444262,19.8001439 41.1165917,19.8001439 41.0887594,19.8001439 L41.0887594,19.8001439 L41.0887594,19.8001439 Z" id="Shape"></path>
            </g>
        </g>
    </g>
</svg>